<svg width="1710" height="1378" viewBox="0 0 1710 1378" fill="none" xmlns="http://www.w3.org/2000/svg">
<path d="M532.208 1376.02C532.208 1376.02 13.7757 1413.65 51.4069 1095.41C89.038 777.163 547.618 1402.35 731.387 1306.99C915.156 1211.63 593.734 826.501 615.47 1019.84C637.205 1213.18 942.301 1326.45 942.301 1173.14C942.301 1019.84 350.935 1099.03 188.577 843.214C26.2191 587.395 -125.965 545.642 166.216 324.106C458.397 102.57 565.234 521.475 859.981 399.942C1154.73 278.409 1171.02 -39.5266 1042.51 5.29601C914.004 50.1186 1044.26 204.388 1311.61 137.354C1578.96 70.3204 1709 259.67 1709 259.67" stroke="#F52626"/>
</svg>
